<svg xmlns="http://www.w3.org/2000/svg" viewBox="0 0 2373.53 687.37"><defs><style>.cls-1{fill:#fff;}</style></defs><title>Recurso 4</title><g id="Capa_2" data-name="Capa 2"><g id="Capa_1-2" data-name="Capa 1"><path class="cls-1" d="M376.08,182.84h25.4l41.24,77.78h78.16l-50.47-92.45c25.11-15,40.34-40.59,40.34-71.79,0-53.13-39.72-90-94.52-90H306.05v254.2h70Zm0-114.19h32c19.58,0,30.85,11.64,30.85,27.52s-11.27,27.68-30.85,27.68h-32Z"/><path class="cls-1" d="M614.92,219.34H705l14,41.28h77.12l-102-254.2H625.65L525.8,260.62h75ZM659.83,85.77l28.11,78.76H632Z"/><rect class="cls-1" x="820.61" y="6.42" width="70.96" height="254.2"/><polygon class="cls-1" points="1172.34 114.23 1192.18 260.62 1262.84 260.62 1224.75 6.42 1154.82 6.42 1094.57 144.74 1034.71 6.42 964.77 6.42 926.33 260.62 997.29 260.62 1016.85 114.29 1084.23 261.04 1104.92 261.04 1172.34 114.23"/><path class="cls-1" d="M1514.1,162.29V6.42h-71.57V161c0,24.85-16,40.9-39.39,40.9s-39.4-16-39.4-40.9V6.42h-71.57V162.29c0,62.54,46.16,104.76,111,104.76S1514.1,224.83,1514.1,162.29Z"/><polygon class="cls-1" points="1787.44 6.42 1719.58 6.42 1719.58 139.79 1621.97 6.42 1560.67 6.42 1560.67 260.62 1628.54 260.62 1628.54 122.67 1729.52 260.62 1787.44 260.62 1787.44 6.42"/><path class="cls-1" d="M2070.76,133.32c0-74.29-54.26-126.9-131.22-126.9H1836.65v254.2h102.89C2016.29,260.62,2070.76,207.49,2070.76,133.32ZM1907,196.49V70.56h29.24c37.65,0,62.74,25,62.74,62.76,0,37.5-25.09,63.17-62.74,63.17Z"/><path class="cls-1" d="M2233.93,267.05h0c81.5,0,139.6-55.63,139.6-133.52S2315.43,0,2233.93,0c-81.72,0-140,55.84-140,133.53S2152.21,267.05,2233.93,267.05Zm0-201.88c38.69,0,66.69,28.58,66.69,68.36s-28,68.36-66.69,68.36h0c-38.7,0-67.12-28.79-67.12-68.36S2195.23,65.17,2233.93,65.17Z"/><path class="cls-1" d="M475.32,598.9c-48.55,0-84.16-38.48-84.16-91.36,0-53.09,35.61-92.13,84.16-92.13,36.09,0,65.71,22.83,77.48,58h95.71C634.57,386.47,565,327.15,475.12,327.15c-104.36,0-182.3,77.26-182.3,180.39,0,102.57,77.94,179.83,182.3,179.83h0c91.32,0,161.34-61.2,174.37-151.35H552.88C543.27,574.11,513.37,598.9,475.32,598.9Z"/><path class="cls-1" d="M865.63,327.15c-110.22,0-188.88,75.32-188.88,180.11s78.66,180.11,188.88,180.11h0c109.94,0,188.31-75,188.31-180.1S975.57,327.15,865.63,327.15Zm0,272.32h0c-52.19,0-90.53-38.83-90.53-92.21s38.34-92.2,90.53-92.2,90,38.55,90,92.21S917.81,599.47,865.63,599.47Z"/><path class="cls-1" d="M1378.3,457.16c0-71.67-53.58-121.34-127.5-121.34H1102.19V678.69h94.46V573.78h34.25l55.63,104.91H1392L1323.88,554C1357.75,533.71,1378.3,499.24,1378.3,457.16Zm-138.5,37h-43.15V419.76h43.15c26.41,0,41.61,15.69,41.61,37.12S1266.21,494.21,1239.8,494.21Z"/><path class="cls-1" d="M1709.41,457.16c0-71.67-53.58-121.34-127.5-121.34H1433.3V678.69h94.46V573.78H1562l55.63,104.91h105.42L1655,554C1688.86,533.71,1709.41,499.24,1709.41,457.16Zm-138.5,37h-43.15V419.76h43.15c26.4,0,41.6,15.69,41.6,37.12S1597.31,494.21,1570.91,494.21Z"/><polygon class="cls-1" points="1858.45 545.43 1971.07 545.43 1971.07 467.95 1858.45 467.95 1858.45 417.47 1983.8 417.47 1983.8 335.82 1764.41 335.82 1764.41 678.69 1987.94 678.69 1987.94 596.76 1858.45 596.76 1858.45 545.43"/><path class="cls-1" d="M2143.56,335.82,2008.88,678.69H2110.1l19-55.69h121.54l18.89,55.69h104L2235.9,335.82Zm8.54,213.26,37.57-106.24,37.9,106.24Z"/><path class="cls-1" d="M258.54,687.37h34.59L295,634.26a210.59,210.59,0,0,1-26.83-52.18Z"/><path class="cls-1" d="M318.74,352.32a211.26,211.26,0,0,1,64.6-43.59c.14-3.57.29-7.24.45-11h-89.6l-9,97.94A209,209,0,0,1,318.74,352.32Z"/><path class="cls-1" d="M300.74,642l-1.61,45.38h19.7c.56-6.57,1.31-14.46,2.28-22.82-.78-.75-1.57-1.49-2.34-2.26A208.15,208.15,0,0,1,300.74,642Z"/><path class="cls-1" d="M255.74,507.54a223.49,223.49,0,0,1,21.81-97.43c3.78-41.85,7.33-81.22,10.15-112.41H269V13.05c-9.15-2.21-18.64-4.13-28.43-5.69C147.73-7.49,67.89,13.43,66.61,56.19c-.88,29.23,3.78,58.6,9.75,90.82l-1-.06a3.28,3.28,0,0,0-3.07-3.29l-.56,0a3.31,3.31,0,0,0-3,1.54c-9.68-8.44-20.51-19.58-25.63-30.75C38.88,105,36,95.28,25.69,94.65S7.33,101.93,5.94,112.14c-1.18,8.59,2.11,26.7,1.13,42.69S.64,188.4.76,197.07c.15,10.3,7.2,19.13,17.48,19.75S32.6,208.12,38,199.34c6.44-10.47,18.53-20.21,29.17-27.41a3.26,3.26,0,0,0,2.77,1.88l.56,0a3.28,3.28,0,0,0,3.44-2.9l7,.43C89.88,218.73,99.36,273,97.82,341.75l-23.17-1.41a3.29,3.29,0,0,0-3.07-3.3L71,337a3.27,3.27,0,0,0-3,1.54c-9.68-8.44-20.51-19.58-25.63-30.76-4.29-9.36-7.2-19.12-17.48-19.75S6.58,295.32,5.18,305.52c-1.18,8.59,2.11,26.71,1.13,42.7S-.12,381.79,0,390.46c.15,10.3,7.2,19.13,17.49,19.75s14.35-8.71,19.75-17.48c6.44-10.48,18.53-20.22,29.17-27.42a3.25,3.25,0,0,0,2.77,1.89l.56,0a3.29,3.29,0,0,0,3.45-2.9l23.66,1.44c-1,17.83-2.84,36.59-5.56,56.41-8.2,59.62,32.18,116.27,48.9,178.82,4.45,16.63,4.73,67.46,4.67,86.36h17.07l-1-269.9a20.94,20.94,0,1,1,5.18-17.39c1.08,6.33,1.67,239.31,1.78,287.29h33.82l-28-479.43a20.93,20.93,0,1,1,5.43-12.44c-.34,4.24,24.25,418.5,28.61,491.87H252.5c2-21.62,6-66.83,10.91-120.76A227.91,227.91,0,0,1,255.74,507.54Z"/></g></g></svg>